<svg width="220" height="38" viewBox="0 0 220 38" fill="none" xmlns="http://www.w3.org/2000/svg">
<path d="M36.6113 37H29.1162L15.6152 13.9531V37H8.6084V1.99023H16.1035L29.6045 25.0615V1.99023H36.6113V37ZM50.1367 37H43.1299V1.99023H50.1367V37ZM84.6094 33.4111C82.9818 34.8109 81.1589 35.8851 79.1406 36.6338C77.1224 37.3825 75.0309 37.7568 72.8662 37.7568C71.2061 37.7568 69.6029 37.5371 68.0566 37.0977C66.5267 36.6745 65.0863 36.0723 63.7354 35.291C62.4007 34.4935 61.18 33.5413 60.0732 32.4346C58.9665 31.3278 58.0143 30.1071 57.2168 28.7725C56.4355 27.4215 55.8252 25.9811 55.3857 24.4512C54.9626 22.9049 54.751 21.3018 54.751 19.6416C54.751 17.9814 54.9626 16.3783 55.3857 14.832C55.8252 13.2858 56.4355 11.8454 57.2168 10.5107C58.0143 9.15983 58.9665 7.93099 60.0732 6.82422C61.18 5.71745 62.4007 4.77344 63.7354 3.99219C65.0863 3.19466 66.5267 2.58431 68.0566 2.16113C69.6029 1.72168 71.2061 1.50195 72.8662 1.50195C75.0309 1.50195 77.1224 1.8763 79.1406 2.625C81.1589 3.35742 82.9818 4.43164 84.6094 5.84766L80.8984 11.9512C79.873 10.8444 78.6605 9.99805 77.2607 9.41211C75.861 8.8099 74.3962 8.50879 72.8662 8.50879C71.32 8.50879 69.8714 8.80176 68.5205 9.3877C67.1696 9.97363 65.9896 10.7712 64.9805 11.7803C63.9714 12.7731 63.1738 13.9531 62.5879 15.3203C62.002 16.6712 61.709 18.1117 61.709 19.6416C61.709 21.1715 62.002 22.612 62.5879 23.9629C63.1738 25.2975 63.9714 26.4694 64.9805 27.4785C65.9896 28.4876 67.1696 29.2852 68.5205 29.8711C69.8714 30.457 71.32 30.75 72.8662 30.75C74.3962 30.75 75.861 30.457 77.2607 29.8711C78.6605 29.2689 79.873 28.4144 80.8984 27.3076L84.6094 33.4111ZM112.686 37H88.6865V1.99023H112.686V8.99707H95.6934V16.0039H107.192V23.0107H95.6934V29.9932H112.686V37ZM124.6 37H117.593V1.99023H142.104V8.99707H124.6V16.0039H135.098V23.0107H124.6V37ZM170.229 37H145.718V1.99023H152.725V29.9932H170.229V37ZM180.898 37H173.892V1.99023H180.898V37ZM214.614 37H206.118L199.38 25.6963L192.617 37H184.17L194.912 19.4951L184.17 1.99023H192.617L199.38 13.2939L206.118 1.99023H214.614L203.872 19.4951L214.614 37Z" fill="#ED690A"/>
</svg>
