<svg width="163" height="45" viewBox="0 0 163 45" fill="none" xmlns="http://www.w3.org/2000/svg">
<g clip-path="url(#clip0)">
<path d="M4.41898 42H10.299V11.34H10.419L18.339 42H25.119V-2.86102e-06H19.239V25.14H19.119L12.699 -2.86102e-06H4.41898V42ZM30.0245 42H36.6245V-2.86102e-06H30.0245V42ZM50.8674 42.6C57.2274 42.6 60.5874 38.76 60.5874 32.28V26.34H54.3474V32.76C54.3474 35.52 53.0274 36.6 51.0474 36.6C49.0674 36.6 47.7474 35.52 47.7474 32.76V9.3C47.7474 6.54 49.0674 5.4 51.0474 5.4C53.0274 5.4 54.3474 6.54 54.3474 9.3V14.16H60.5874V9.72C60.5874 3.24 57.2274 -0.600002 50.8674 -0.600002C44.5074 -0.600002 41.1474 3.24 41.1474 9.72V32.28C41.1474 38.76 44.5074 42.6 50.8674 42.6ZM64.5362 42H82.5362V36H71.1362V23.1H80.1962V17.1H71.1362V6H82.5362V-2.86102e-06H64.5362V42ZM86.333 42H92.933V23.7H101.453V17.7H92.933V6H103.793V-2.86102e-06H86.333V42ZM106.958 42H124.418V36H113.558V-2.86102e-06H106.958V42ZM127.583 42H134.183V-2.86102e-06H127.583V42ZM137.326 42H143.566L148.486 27.36H148.606L153.406 42H160.366L152.746 20.52L160.006 -2.86102e-06H153.766L149.206 13.56H149.086L144.646 -2.86102e-06H137.686L144.946 20.52L137.326 42Z" fill="white"/>
</g>
<defs>
<clipPath id="clip0">
<rect width="163" height="45" fill="white"/>
</clipPath>
</defs>
</svg>
